HIERARCHY
ROOT sphere
{
	OFFSET 0.000000 0.000000 0.000000
	CHANNELS 6 Xposition Yposition Zposition Yrotation Xrotation Zrotation
	End Site
	{
		OFFSET 0.000000 0.000000 0.000000
	}
}
MOTION
Frames: 181
Frame Time: 0.008333334
-0.650802 2.479936 3.782075 100.479000 -21.712620 25.676990 
-0.650887 2.474005 3.794448 99.982420 -21.817930 26.445320 
-0.653143 2.466927 3.808350 99.115010 -21.869080 26.926700 
-0.656232 2.459458 3.820510 98.507030 -21.977970 27.695300 
-0.658632 2.452592 3.831505 97.832150 -22.150090 28.647050 
-0.660281 2.446386 3.843116 97.233010 -22.033780 29.282830 
-0.659899 2.442998 3.853593 96.856510 -21.954680 29.941640 
-0.659914 2.441107 3.862246 96.321680 -21.926540 30.332300 
-0.662063 2.440867 3.868333 96.116790 -21.755000 30.498570 
-0.664638 2.440375 3.873689 95.647040 -21.806270 30.388960 
-0.668517 2.436613 3.880132 95.541730 -21.922300 30.795340 
-0.673006 2.429209 3.888433 95.545680 -22.288880 31.296130 
-0.678450 2.420317 3.898251 95.150870 -23.069700 31.908410 
-0.682126 2.410172 3.907825 95.241860 -23.341090 32.705560 
-0.685139 2.401140 3.918979 95.049010 -23.537750 33.343390 
-0.686766 2.391983 3.929446 94.995030 -23.442140 34.015180 
-0.689587 2.384706 3.940389 94.932690 -23.084170 34.439000 
-0.690105 2.377027 3.950255 94.429060 -23.312680 35.098260 
-0.693943 2.369609 3.961450 94.048250 -23.718140 35.813130 
-0.699951 2.363505 3.972486 93.374150 -23.888820 35.966690 
-0.706904 2.358648 3.984346 92.564540 -24.582240 36.583470 
-0.715089 2.354347 3.994357 91.850620 -24.828160 36.692030 
-0.724137 2.353003 4.005516 90.979480 -25.433440 36.695730 
-0.733243 2.352838 4.015903 90.352340 -25.689580 36.683710 
-0.742015 2.353585 4.026887 89.558830 -25.684420 36.713900 
-0.750824 2.356372 4.038146 89.114590 -25.539000 36.499730 
-0.760566 2.359419 4.051092 88.235160 -25.406040 36.279500 
-0.770194 2.362888 4.063369 87.409610 -25.456450 35.991210 
-0.779290 2.365026 4.073666 87.021320 -25.279210 36.352200 
-0.790498 2.367456 4.086984 86.274800 -25.212460 35.905380 
-0.799388 2.369110 4.097999 85.562570 -25.127410 35.637810 
-0.807893 2.372054 4.108510 84.857830 -24.968410 35.219410 
-0.814367 2.375154 4.117220 84.193970 -24.862700 35.084720 
-0.821598 2.379847 4.126384 83.196910 -24.837950 34.816780 
-0.827458 2.383998 4.133513 81.983920 -25.027190 34.500990 
-0.831011 2.387803 4.139270 81.022150 -24.924590 34.266030 
-0.833635 2.392983 4.144801 79.844690 -25.094180 33.908890 
-0.834480 2.396805 4.149318 78.764270 -24.851900 33.542620 
-0.833629 2.400885 4.154604 77.722260 -24.976100 33.875770 
-0.832018 2.404095 4.161066 76.629590 -24.900360 34.322150 
-0.829937 2.406107 4.168046 75.638510 -24.689510 34.760000 
-0.826007 2.407293 4.175771 74.684670 -24.809450 35.870920 
-0.822274 2.408101 4.183087 73.987890 -24.632780 37.015990 
-0.816624 2.409207 4.190320 73.293210 -24.663240 38.378630 
-0.809636 2.410139 4.196445 72.891050 -24.459560 39.262600 
-0.801187 2.411934 4.199838 72.244500 -24.357030 40.389980 
-0.792018 2.415236 4.201586 71.497760 -24.095400 40.979840 
-0.781891 2.420640 4.201204 70.750730 -23.869900 41.127690 
-0.771133 2.425992 4.198431 70.065690 -23.790950 41.338840 
-0.759687 2.431747 4.192699 69.433240 -23.520320 41.382850 
-0.748257 2.436466 4.186213 69.290500 -23.161250 41.226110 
-0.734909 2.441857 4.179228 68.465330 -23.149720 41.165440 
-0.720472 2.445879 4.171503 68.429260 -22.639740 41.366250 
-0.704998 2.449864 4.164676 68.187490 -22.133240 41.326590 
-0.689968 2.453472 4.156679 68.355560 -21.400850 40.928060 
-0.672353 2.457245 4.147122 68.004120 -20.884120 41.101710 
-0.655468 2.460366 4.137088 68.145350 -20.139590 40.834400 
-0.638758 2.463428 4.125659 68.191050 -19.491910 40.549430 
-0.621491 2.465673 4.113816 67.991050 -18.899960 40.342710 
-0.605015 2.466689 4.101997 68.291740 -18.284730 39.641140 
-0.586961 2.467277 4.087558 68.312330 -17.751010 39.455080 
-0.571250 2.465695 4.074787 68.422660 -17.194580 38.576150 
-0.553183 2.465276 4.059803 68.732390 -16.567320 37.945980 
-0.536131 2.463535 4.045346 69.250800 -15.713040 37.054290 
-0.517185 2.460933 4.028864 69.277630 -15.196840 36.306210 
-0.500452 2.457116 4.014449 70.047190 -14.224120 35.234390 
-0.482304 2.452364 3.997875 70.235530 -13.495880 34.141910 
-0.464440 2.448761 3.981482 70.504440 -12.759490 33.192690 
-0.449474 2.444353 3.966195 70.884730 -11.906250 31.551960 
-0.438101 2.440891 3.954196 71.200580 -11.421600 30.536590 
-0.434632 2.439801 3.948151 71.299460 -11.183290 30.037380 
-0.438411 2.439826 3.947397 71.315300 -11.241850 30.139750 
-0.445287 2.441276 3.948376 71.101490 -11.383580 30.314250 
-0.452108 2.441864 3.947194 70.837000 -11.485500 30.396250 
-0.459396 2.441669 3.947489 70.371510 -11.828860 30.307220 
-0.466911 2.439997 3.946721 70.411100 -11.802430 30.402440 
-0.472486 2.438825 3.945533 70.238810 -11.717650 30.566300 
-0.476819 2.437954 3.944275 70.086850 -11.552460 30.784030 
-0.479691 2.437334 3.941863 69.972610 -11.154600 30.991510 
-0.483040 2.438379 3.936272 69.825360 -10.354310 30.979680 
-0.484158 2.442007 3.927944 69.167080 -9.611908 31.063600 
-0.486791 2.446846 3.916708 68.266370 -8.831512 31.076300 
-0.492072 2.453801 3.904350 67.021010 -8.057770 30.853480 
-0.497085 2.461805 3.889843 64.987010 -7.300018 30.565770 
-0.503763 2.469817 3.874780 62.960610 -6.486786 30.636310 
-0.511856 2.477046 3.861142 60.724020 -5.580109 31.082480 
-0.519612 2.482545 3.850268 58.005480 -4.647339 31.489540 
-0.528134 2.486413 3.843287 55.063630 -3.368286 32.120130 
-0.536184 2.488525 3.838986 51.827840 -1.588562 32.870610 
-0.546872 2.491122 3.837176 48.446750 0.508997 33.721490 
-0.555340 2.493888 3.837090 44.463570 3.034973 34.386810 
-0.564121 2.494993 3.837765 40.643630 6.175718 35.073640 
-0.572440 2.496848 3.838975 36.796190 9.677251 35.431000 
-0.578101 2.498240 3.839431 33.265870 13.686200 35.912830 
-0.584445 2.500336 3.840439 29.389940 17.491330 35.979720 
-0.588114 2.502602 3.841362 25.039410 21.394190 35.336350 
-0.591562 2.504691 3.842103 20.938820 25.170340 34.450330 
-0.593136 2.507363 3.843499 16.751140 28.921780 33.301290 
-0.593331 2.509900 3.845039 12.489930 32.452220 31.613700 
-0.592595 2.512622 3.845400 7.915649 35.826470 29.738650 
-0.591443 2.516129 3.845451 3.583837 39.098770 27.611530 
-0.589132 2.519566 3.845254 -1.638000 41.817650 24.928240 
-0.587410 2.524533 3.844144 -6.935120 44.255570 22.039960 
-0.585519 2.529470 3.841262 -12.030240 46.554430 19.019910 
-0.584446 2.533865 3.836180 -17.357790 48.391710 15.717690 
-0.584815 2.538309 3.829865 -22.560300 49.979830 12.275090 
-0.585378 2.542297 3.822101 -28.222900 51.397780 8.767101 
-0.586049 2.545615 3.813742 -34.472200 52.547520 4.682355 
-0.586793 2.549160 3.805447 -41.626100 53.381100 -0.150147 
-0.586979 2.553279 3.798896 -49.144290 54.247170 -5.366913 
-0.585342 2.556500 3.793632 -57.161560 54.101600 -11.113860 
-0.584774 2.559388 3.789726 -64.845340 53.879030 -17.048000 
-0.582358 2.560565 3.788827 -72.118740 53.283600 -22.199860 
-0.580826 2.560605 3.789264 -78.883640 52.401200 -27.088130 
-0.579888 2.558503 3.791410 -85.072690 51.370610 -32.125850 
-0.580499 2.554949 3.794553 -90.566530 50.299470 -36.253720 
-0.582087 2.550605 3.798743 -95.398500 48.930480 -40.094760 
-0.585457 2.544214 3.803740 -99.705930 47.779750 -43.202610 
-0.588732 2.536691 3.808415 -103.770400 46.672770 -46.306090 
-0.595291 2.528391 3.815001 -107.536800 45.667390 -49.017300 
-0.602046 2.518430 3.822642 -110.795600 44.537460 -51.798070 
-0.610480 2.506804 3.830695 -113.783400 43.435250 -54.196320 
-0.619270 2.494048 3.839872 -116.642700 42.378720 -56.125490 
-0.627405 2.480221 3.849332 -119.247400 41.247790 -58.285950 
-0.634928 2.466861 3.862267 -121.540100 40.017820 -60.319150 
-0.640642 2.455361 3.876953 -123.615600 38.981360 -61.833560 
-0.643395 2.444785 3.894797 -125.384600 37.762000 -63.342290 
-0.642216 2.434231 3.913209 -126.592200 36.476870 -64.544250 
-0.642304 2.425486 3.932298 -127.657300 35.247250 -65.610230 
-0.641580 2.417693 3.946320 -128.604800 34.562110 -66.617000 
-0.644646 2.411085 3.956746 -129.260800 33.922200 -67.061710 
-0.648658 2.405318 3.963939 -129.465400 33.417650 -67.538330 
-0.652845 2.400526 3.969543 -129.661500 33.392560 -68.126560 
-0.658134 2.396448 3.976587 -129.898900 33.491180 -68.347870 
-0.663914 2.390678 3.984460 -129.707400 33.153300 -68.751100 
-0.668566 2.383579 3.993899 -129.409100 32.739720 -69.251040 
-0.672763 2.375911 4.005525 -128.994100 32.326260 -69.743230 
-0.676591 2.368028 4.017087 -128.153900 31.734090 -70.388310 
-0.679026 2.358693 4.027563 -127.494600 31.276730 -70.226380 
-0.681342 2.351233 4.038742 -127.192600 30.755330 -71.005980 
-0.684444 2.343967 4.048223 -127.315500 30.442190 -71.645630 
-0.686579 2.337272 4.055923 -127.241600 30.147940 -71.762630 
-0.689598 2.332254 4.062812 -127.338900 29.893630 -71.625000 
-0.692891 2.328735 4.069125 -127.434600 29.587990 -71.724370 
-0.696497 2.326408 4.074841 -127.850500 29.349090 -71.754430 
-0.700944 2.326528 4.080830 -128.370500 29.154460 -71.389160 
-0.705044 2.327899 4.085266 -128.594800 28.902420 -71.164860 
-0.709253 2.330205 4.090157 -128.908700 28.793840 -70.344020 
-0.713280 2.332684 4.094361 -129.008100 28.555980 -69.958470 
-0.716258 2.336310 4.098796 -129.112900 28.396250 -68.926300 
-0.716690 2.340842 4.100983 -128.751500 28.016040 -67.944980 
-0.717536 2.346516 4.105520 -128.752500 27.672120 -67.235810 
-0.714924 2.350986 4.107259 -128.143600 27.044950 -65.895140 
-0.710884 2.357917 4.111794 -128.413500 26.628100 -65.778560 
-0.707332 2.363076 4.115338 -127.920200 26.039260 -64.888790 
-0.701563 2.367197 4.118336 -127.407000 25.477780 -64.145900 
-0.695562 2.373539 4.123648 -127.720700 25.047400 -64.225040 
-0.689553 2.378578 4.128378 -127.857700 24.250900 -64.072200 
-0.684592 2.384252 4.133795 -127.898700 24.047870 -64.266170 
-0.676324 2.388694 4.136913 -127.606600 23.467350 -63.821780 
-0.668057 2.393135 4.140032 -127.320600 22.884790 -63.382540 
-0.658889 2.397840 4.141343 -127.391200 22.544530 -63.136320 
-0.649956 2.403037 4.142366 -127.132500 21.953470 -62.548830 
-0.638565 2.408175 4.139248 -126.593700 21.512830 -61.609620 
-0.627571 2.413312 4.138819 -126.590100 20.892360 -61.057370 
-0.615546 2.418815 4.135440 -126.329200 20.449050 -60.302610 
-0.603046 2.422293 4.131569 -126.728200 19.830390 -59.166810 
-0.591184 2.425486 4.123787 -125.693600 19.498930 -58.414670 
-0.578960 2.428545 4.117360 -125.545500 19.033670 -57.514130 
-0.566736 2.431604 4.110934 -125.405600 18.566280 -56.617370 
-0.552553 2.432777 4.100664 -124.620200 18.353960 -55.762180 
-0.538400 2.432448 4.089240 -124.129600 17.846040 -54.406800 
-0.524248 2.432119 4.077817 -123.652900 17.327090 -53.059480 
-0.510095 2.431790 4.066393 -123.190500 16.797640 -51.720460 
-0.495943 2.431461 4.054970 -122.742500 16.258200 -50.390080 
-0.481120 2.429757 4.041637 -122.322500 16.049840 -49.290160 
-0.466825 2.427373 4.028252 -122.065000 15.539570 -47.910640 
-0.453212 2.425533 4.013946 -121.656400 15.316580 -46.748140 
-0.441800 2.426288 4.002860 -122.094300 15.378020 -45.892090 
-0.430316 2.423510 3.988666 -121.488700 14.892420 -44.001740 
-0.419741 2.421323 3.973828 -120.737600 14.541400 -42.665950 
